G04 #@! TF.GenerationSoftware,KiCad,Pcbnew,5.1.12-84ad8e8a86~92~ubuntu20.04.1*
G04 #@! TF.CreationDate,2022-05-29T14:18:07-04:00*
G04 #@! TF.ProjectId,fluke9010-protection,666c756b-6539-4303-9130-2d70726f7465,rev?*
G04 #@! TF.SameCoordinates,Original*
G04 #@! TF.FileFunction,Legend,Bot*
G04 #@! TF.FilePolarity,Positive*
%FSLAX46Y46*%
G04 Gerber Fmt 4.6, Leading zero omitted, Abs format (unit mm)*
G04 Created by KiCad (PCBNEW 5.1.12-84ad8e8a86~92~ubuntu20.04.1) date 2022-05-29 14:18:07*
%MOMM*%
%LPD*%
G01*
G04 APERTURE LIST*
%ADD10C,0.120000*%
%ADD11C,0.150000*%
%ADD12R,2.400000X1.600000*%
%ADD13O,2.400000X1.600000*%
G04 APERTURE END LIST*
D10*
X133841258Y-86628500D02*
X133366742Y-86628500D01*
X133841258Y-85583500D02*
X133366742Y-85583500D01*
X138954742Y-78979500D02*
X139429258Y-78979500D01*
X138954742Y-80024500D02*
X139429258Y-80024500D01*
X132413742Y-80249500D02*
X132888258Y-80249500D01*
X132413742Y-81294500D02*
X132888258Y-81294500D01*
X129525500Y-70595258D02*
X129525500Y-70120742D01*
X130570500Y-70595258D02*
X130570500Y-70120742D01*
X137176742Y-83043500D02*
X137651258Y-83043500D01*
X137176742Y-84088500D02*
X137651258Y-84088500D01*
X130570500Y-74184742D02*
X130570500Y-74659258D01*
X129525500Y-74184742D02*
X129525500Y-74659258D01*
D11*
X134246857Y-88082380D02*
X134580190Y-87606190D01*
X134818285Y-88082380D02*
X134818285Y-87082380D01*
X134437333Y-87082380D01*
X134342095Y-87130000D01*
X134294476Y-87177619D01*
X134246857Y-87272857D01*
X134246857Y-87415714D01*
X134294476Y-87510952D01*
X134342095Y-87558571D01*
X134437333Y-87606190D01*
X134818285Y-87606190D01*
X133865904Y-87177619D02*
X133818285Y-87130000D01*
X133723047Y-87082380D01*
X133484952Y-87082380D01*
X133389714Y-87130000D01*
X133342095Y-87177619D01*
X133294476Y-87272857D01*
X133294476Y-87368095D01*
X133342095Y-87510952D01*
X133913523Y-88082380D01*
X133294476Y-88082380D01*
X132961142Y-87082380D02*
X132342095Y-87082380D01*
X132675428Y-87463333D01*
X132532571Y-87463333D01*
X132437333Y-87510952D01*
X132389714Y-87558571D01*
X132342095Y-87653809D01*
X132342095Y-87891904D01*
X132389714Y-87987142D01*
X132437333Y-88034761D01*
X132532571Y-88082380D01*
X132818285Y-88082380D01*
X132913523Y-88034761D01*
X132961142Y-87987142D01*
X139834857Y-81384380D02*
X140168190Y-80908190D01*
X140406285Y-81384380D02*
X140406285Y-80384380D01*
X140025333Y-80384380D01*
X139930095Y-80432000D01*
X139882476Y-80479619D01*
X139834857Y-80574857D01*
X139834857Y-80717714D01*
X139882476Y-80812952D01*
X139930095Y-80860571D01*
X140025333Y-80908190D01*
X140406285Y-80908190D01*
X139453904Y-80479619D02*
X139406285Y-80432000D01*
X139311047Y-80384380D01*
X139072952Y-80384380D01*
X138977714Y-80432000D01*
X138930095Y-80479619D01*
X138882476Y-80574857D01*
X138882476Y-80670095D01*
X138930095Y-80812952D01*
X139501523Y-81384380D01*
X138882476Y-81384380D01*
X138311047Y-80812952D02*
X138406285Y-80765333D01*
X138453904Y-80717714D01*
X138501523Y-80622476D01*
X138501523Y-80574857D01*
X138453904Y-80479619D01*
X138406285Y-80432000D01*
X138311047Y-80384380D01*
X138120571Y-80384380D01*
X138025333Y-80432000D01*
X137977714Y-80479619D01*
X137930095Y-80574857D01*
X137930095Y-80622476D01*
X137977714Y-80717714D01*
X138025333Y-80765333D01*
X138120571Y-80812952D01*
X138311047Y-80812952D01*
X138406285Y-80860571D01*
X138453904Y-80908190D01*
X138501523Y-81003428D01*
X138501523Y-81193904D01*
X138453904Y-81289142D01*
X138406285Y-81336761D01*
X138311047Y-81384380D01*
X138120571Y-81384380D01*
X138025333Y-81336761D01*
X137977714Y-81289142D01*
X137930095Y-81193904D01*
X137930095Y-81003428D01*
X137977714Y-80908190D01*
X138025333Y-80860571D01*
X138120571Y-80812952D01*
X133293857Y-82654380D02*
X133627190Y-82178190D01*
X133865285Y-82654380D02*
X133865285Y-81654380D01*
X133484333Y-81654380D01*
X133389095Y-81702000D01*
X133341476Y-81749619D01*
X133293857Y-81844857D01*
X133293857Y-81987714D01*
X133341476Y-82082952D01*
X133389095Y-82130571D01*
X133484333Y-82178190D01*
X133865285Y-82178190D01*
X132912904Y-81749619D02*
X132865285Y-81702000D01*
X132770047Y-81654380D01*
X132531952Y-81654380D01*
X132436714Y-81702000D01*
X132389095Y-81749619D01*
X132341476Y-81844857D01*
X132341476Y-81940095D01*
X132389095Y-82082952D01*
X132960523Y-82654380D01*
X132341476Y-82654380D01*
X131436714Y-81654380D02*
X131912904Y-81654380D01*
X131960523Y-82130571D01*
X131912904Y-82082952D01*
X131817666Y-82035333D01*
X131579571Y-82035333D01*
X131484333Y-82082952D01*
X131436714Y-82130571D01*
X131389095Y-82225809D01*
X131389095Y-82463904D01*
X131436714Y-82559142D01*
X131484333Y-82606761D01*
X131579571Y-82654380D01*
X131817666Y-82654380D01*
X131912904Y-82606761D01*
X131960523Y-82559142D01*
X131930380Y-69715142D02*
X131454190Y-69381809D01*
X131930380Y-69143714D02*
X130930380Y-69143714D01*
X130930380Y-69524666D01*
X130978000Y-69619904D01*
X131025619Y-69667523D01*
X131120857Y-69715142D01*
X131263714Y-69715142D01*
X131358952Y-69667523D01*
X131406571Y-69619904D01*
X131454190Y-69524666D01*
X131454190Y-69143714D01*
X131025619Y-70096095D02*
X130978000Y-70143714D01*
X130930380Y-70238952D01*
X130930380Y-70477047D01*
X130978000Y-70572285D01*
X131025619Y-70619904D01*
X131120857Y-70667523D01*
X131216095Y-70667523D01*
X131358952Y-70619904D01*
X131930380Y-70048476D01*
X131930380Y-70667523D01*
X131263714Y-71524666D02*
X131930380Y-71524666D01*
X130882761Y-71286571D02*
X131597047Y-71048476D01*
X131597047Y-71667523D01*
X138056857Y-85448380D02*
X138390190Y-84972190D01*
X138628285Y-85448380D02*
X138628285Y-84448380D01*
X138247333Y-84448380D01*
X138152095Y-84496000D01*
X138104476Y-84543619D01*
X138056857Y-84638857D01*
X138056857Y-84781714D01*
X138104476Y-84876952D01*
X138152095Y-84924571D01*
X138247333Y-84972190D01*
X138628285Y-84972190D01*
X137675904Y-84543619D02*
X137628285Y-84496000D01*
X137533047Y-84448380D01*
X137294952Y-84448380D01*
X137199714Y-84496000D01*
X137152095Y-84543619D01*
X137104476Y-84638857D01*
X137104476Y-84734095D01*
X137152095Y-84876952D01*
X137723523Y-85448380D01*
X137104476Y-85448380D01*
X136723523Y-84543619D02*
X136675904Y-84496000D01*
X136580666Y-84448380D01*
X136342571Y-84448380D01*
X136247333Y-84496000D01*
X136199714Y-84543619D01*
X136152095Y-84638857D01*
X136152095Y-84734095D01*
X136199714Y-84876952D01*
X136771142Y-85448380D01*
X136152095Y-85448380D01*
X132024380Y-74255333D02*
X131548190Y-73922000D01*
X132024380Y-73683904D02*
X131024380Y-73683904D01*
X131024380Y-74064857D01*
X131072000Y-74160095D01*
X131119619Y-74207714D01*
X131214857Y-74255333D01*
X131357714Y-74255333D01*
X131452952Y-74207714D01*
X131500571Y-74160095D01*
X131548190Y-74064857D01*
X131548190Y-73683904D01*
X131357714Y-75112476D02*
X132024380Y-75112476D01*
X130976761Y-74874380D02*
X131691047Y-74636285D01*
X131691047Y-75255333D01*
%LPC*%
G36*
G01*
X133179000Y-85831000D02*
X133179000Y-86381000D01*
G75*
G02*
X132979000Y-86581000I-200000J0D01*
G01*
X132579000Y-86581000D01*
G75*
G02*
X132379000Y-86381000I0J200000D01*
G01*
X132379000Y-85831000D01*
G75*
G02*
X132579000Y-85631000I200000J0D01*
G01*
X132979000Y-85631000D01*
G75*
G02*
X133179000Y-85831000I0J-200000D01*
G01*
G37*
G36*
G01*
X134829000Y-85831000D02*
X134829000Y-86381000D01*
G75*
G02*
X134629000Y-86581000I-200000J0D01*
G01*
X134229000Y-86581000D01*
G75*
G02*
X134029000Y-86381000I0J200000D01*
G01*
X134029000Y-85831000D01*
G75*
G02*
X134229000Y-85631000I200000J0D01*
G01*
X134629000Y-85631000D01*
G75*
G02*
X134829000Y-85831000I0J-200000D01*
G01*
G37*
G36*
G01*
X139617000Y-79777000D02*
X139617000Y-79227000D01*
G75*
G02*
X139817000Y-79027000I200000J0D01*
G01*
X140217000Y-79027000D01*
G75*
G02*
X140417000Y-79227000I0J-200000D01*
G01*
X140417000Y-79777000D01*
G75*
G02*
X140217000Y-79977000I-200000J0D01*
G01*
X139817000Y-79977000D01*
G75*
G02*
X139617000Y-79777000I0J200000D01*
G01*
G37*
G36*
G01*
X137967000Y-79777000D02*
X137967000Y-79227000D01*
G75*
G02*
X138167000Y-79027000I200000J0D01*
G01*
X138567000Y-79027000D01*
G75*
G02*
X138767000Y-79227000I0J-200000D01*
G01*
X138767000Y-79777000D01*
G75*
G02*
X138567000Y-79977000I-200000J0D01*
G01*
X138167000Y-79977000D01*
G75*
G02*
X137967000Y-79777000I0J200000D01*
G01*
G37*
G36*
G01*
X133076000Y-81047000D02*
X133076000Y-80497000D01*
G75*
G02*
X133276000Y-80297000I200000J0D01*
G01*
X133676000Y-80297000D01*
G75*
G02*
X133876000Y-80497000I0J-200000D01*
G01*
X133876000Y-81047000D01*
G75*
G02*
X133676000Y-81247000I-200000J0D01*
G01*
X133276000Y-81247000D01*
G75*
G02*
X133076000Y-81047000I0J200000D01*
G01*
G37*
G36*
G01*
X131426000Y-81047000D02*
X131426000Y-80497000D01*
G75*
G02*
X131626000Y-80297000I200000J0D01*
G01*
X132026000Y-80297000D01*
G75*
G02*
X132226000Y-80497000I0J-200000D01*
G01*
X132226000Y-81047000D01*
G75*
G02*
X132026000Y-81247000I-200000J0D01*
G01*
X131626000Y-81247000D01*
G75*
G02*
X131426000Y-81047000I0J200000D01*
G01*
G37*
G36*
G01*
X130323000Y-69933000D02*
X129773000Y-69933000D01*
G75*
G02*
X129573000Y-69733000I0J200000D01*
G01*
X129573000Y-69333000D01*
G75*
G02*
X129773000Y-69133000I200000J0D01*
G01*
X130323000Y-69133000D01*
G75*
G02*
X130523000Y-69333000I0J-200000D01*
G01*
X130523000Y-69733000D01*
G75*
G02*
X130323000Y-69933000I-200000J0D01*
G01*
G37*
G36*
G01*
X130323000Y-71583000D02*
X129773000Y-71583000D01*
G75*
G02*
X129573000Y-71383000I0J200000D01*
G01*
X129573000Y-70983000D01*
G75*
G02*
X129773000Y-70783000I200000J0D01*
G01*
X130323000Y-70783000D01*
G75*
G02*
X130523000Y-70983000I0J-200000D01*
G01*
X130523000Y-71383000D01*
G75*
G02*
X130323000Y-71583000I-200000J0D01*
G01*
G37*
G36*
G01*
X137839000Y-83841000D02*
X137839000Y-83291000D01*
G75*
G02*
X138039000Y-83091000I200000J0D01*
G01*
X138439000Y-83091000D01*
G75*
G02*
X138639000Y-83291000I0J-200000D01*
G01*
X138639000Y-83841000D01*
G75*
G02*
X138439000Y-84041000I-200000J0D01*
G01*
X138039000Y-84041000D01*
G75*
G02*
X137839000Y-83841000I0J200000D01*
G01*
G37*
G36*
G01*
X136189000Y-83841000D02*
X136189000Y-83291000D01*
G75*
G02*
X136389000Y-83091000I200000J0D01*
G01*
X136789000Y-83091000D01*
G75*
G02*
X136989000Y-83291000I0J-200000D01*
G01*
X136989000Y-83841000D01*
G75*
G02*
X136789000Y-84041000I-200000J0D01*
G01*
X136389000Y-84041000D01*
G75*
G02*
X136189000Y-83841000I0J200000D01*
G01*
G37*
G36*
G01*
X129773000Y-74847000D02*
X130323000Y-74847000D01*
G75*
G02*
X130523000Y-75047000I0J-200000D01*
G01*
X130523000Y-75447000D01*
G75*
G02*
X130323000Y-75647000I-200000J0D01*
G01*
X129773000Y-75647000D01*
G75*
G02*
X129573000Y-75447000I0J200000D01*
G01*
X129573000Y-75047000D01*
G75*
G02*
X129773000Y-74847000I200000J0D01*
G01*
G37*
G36*
G01*
X129773000Y-73197000D02*
X130323000Y-73197000D01*
G75*
G02*
X130523000Y-73397000I0J-200000D01*
G01*
X130523000Y-73797000D01*
G75*
G02*
X130323000Y-73997000I-200000J0D01*
G01*
X129773000Y-73997000D01*
G75*
G02*
X129573000Y-73797000I0J200000D01*
G01*
X129573000Y-73397000D01*
G75*
G02*
X129773000Y-73197000I200000J0D01*
G01*
G37*
D12*
X127516000Y-65382000D03*
D13*
X127516000Y-67922000D03*
X142756000Y-95862000D03*
X127516000Y-70462000D03*
X142756000Y-93322000D03*
X127516000Y-73002000D03*
X142756000Y-90782000D03*
X127516000Y-75542000D03*
X142756000Y-88242000D03*
X127516000Y-78082000D03*
X142756000Y-85702000D03*
X127516000Y-80622000D03*
X142756000Y-83162000D03*
X127516000Y-83162000D03*
X142756000Y-80622000D03*
X127516000Y-85702000D03*
X142756000Y-78082000D03*
X127516000Y-88242000D03*
X142756000Y-75542000D03*
X127516000Y-90782000D03*
X142756000Y-73002000D03*
X127516000Y-93322000D03*
X142756000Y-70462000D03*
X127516000Y-95862000D03*
X142756000Y-67922000D03*
X142756000Y-65382000D03*
M02*
