%FSLAX45Y45*%
G04 Gerber Fmt 4.5, Leading zero omitted, Abs format (unit mm)*
G04 Created by KiCad (PCBNEW 5.1.12-84ad8e8a86~92~ubuntu20.04.1) date 2022-05-29 14:18:37*
%MOMM*%
%LPD*%
G01*
G04 APERTURE LIST*
%TA.AperFunction,Profile*%
%ADD10C,0.050000*%
%TD*%
%ADD11C,0.200000*%
%ADD12C,0.300000*%
G04 APERTURE END LIST*
D10*
X12598400Y-9753600D02*
X12598400Y-6375400D01*
X14427200Y-9753600D02*
X12598400Y-9753600D01*
X14427200Y-6375400D02*
X14427200Y-9753600D01*
X12598400Y-6375400D02*
X14427200Y-6375400D01*
D11*
D12*
X12882328Y-10221814D02*
X12882328Y-9921814D01*
X12953757Y-9921814D01*
X12996614Y-9936100D01*
X13025186Y-9964672D01*
X13039471Y-9993243D01*
X13053757Y-10050386D01*
X13053757Y-10093243D01*
X13039471Y-10150386D01*
X13025186Y-10178957D01*
X12996614Y-10207529D01*
X12953757Y-10221814D01*
X12882328Y-10221814D01*
X13182328Y-10221814D02*
X13182328Y-10021814D01*
X13182328Y-10078957D02*
X13196614Y-10050386D01*
X13210900Y-10036100D01*
X13239471Y-10021814D01*
X13268043Y-10021814D01*
X13368043Y-10221814D02*
X13368043Y-10021814D01*
X13368043Y-9921814D02*
X13353757Y-9936100D01*
X13368043Y-9950386D01*
X13382328Y-9936100D01*
X13368043Y-9921814D01*
X13368043Y-9950386D01*
X13553757Y-10221814D02*
X13525186Y-10207529D01*
X13510900Y-10178957D01*
X13510900Y-9921814D01*
X13710900Y-10221814D02*
X13682328Y-10207529D01*
X13668043Y-10178957D01*
X13668043Y-9921814D01*
X14053757Y-10221814D02*
X14053757Y-9921814D01*
X14153757Y-10136100D01*
X14253757Y-9921814D01*
X14253757Y-10221814D01*
X14525186Y-10221814D02*
X14525186Y-10064672D01*
X14510900Y-10036100D01*
X14482328Y-10021814D01*
X14425186Y-10021814D01*
X14396614Y-10036100D01*
X14525186Y-10207529D02*
X14496614Y-10221814D01*
X14425186Y-10221814D01*
X14396614Y-10207529D01*
X14382328Y-10178957D01*
X14382328Y-10150386D01*
X14396614Y-10121814D01*
X14425186Y-10107529D01*
X14496614Y-10107529D01*
X14525186Y-10093243D01*
X14668043Y-10021814D02*
X14668043Y-10321814D01*
X14668043Y-10036100D02*
X14696614Y-10021814D01*
X14753757Y-10021814D01*
X14782328Y-10036100D01*
X14796614Y-10050386D01*
X14810900Y-10078957D01*
X14810900Y-10164672D01*
X14796614Y-10193243D01*
X14782328Y-10207529D01*
X14753757Y-10221814D01*
X14696614Y-10221814D01*
X14668043Y-10207529D01*
X14939471Y-10193243D02*
X14953757Y-10207529D01*
X14939471Y-10221814D01*
X14925186Y-10207529D01*
X14939471Y-10193243D01*
X14939471Y-10221814D01*
X14939471Y-10036100D02*
X14953757Y-10050386D01*
X14939471Y-10064672D01*
X14925186Y-10050386D01*
X14939471Y-10036100D01*
X14939471Y-10064672D01*
M02*
