G04 #@! TF.GenerationSoftware,KiCad,Pcbnew,5.1.12-84ad8e8a86~92~ubuntu20.04.1*
G04 #@! TF.CreationDate,2022-05-29T14:18:07-04:00*
G04 #@! TF.ProjectId,fluke9010-protection,666c756b-6539-4303-9130-2d70726f7465,rev?*
G04 #@! TF.SameCoordinates,Original*
G04 #@! TF.FileFunction,Paste,Top*
G04 #@! TF.FilePolarity,Positive*
%FSLAX46Y46*%
G04 Gerber Fmt 4.6, Leading zero omitted, Abs format (unit mm)*
G04 Created by KiCad (PCBNEW 5.1.12-84ad8e8a86~92~ubuntu20.04.1) date 2022-05-29 14:18:07*
%MOMM*%
%LPD*%
G01*
G04 APERTURE LIST*
%ADD10R,0.900000X0.800000*%
G04 APERTURE END LIST*
G36*
G01*
X134537000Y-69109000D02*
X134537000Y-68559000D01*
G75*
G02*
X134737000Y-68359000I200000J0D01*
G01*
X135137000Y-68359000D01*
G75*
G02*
X135337000Y-68559000I0J-200000D01*
G01*
X135337000Y-69109000D01*
G75*
G02*
X135137000Y-69309000I-200000J0D01*
G01*
X134737000Y-69309000D01*
G75*
G02*
X134537000Y-69109000I0J200000D01*
G01*
G37*
G36*
G01*
X132887000Y-69109000D02*
X132887000Y-68559000D01*
G75*
G02*
X133087000Y-68359000I200000J0D01*
G01*
X133487000Y-68359000D01*
G75*
G02*
X133687000Y-68559000I0J-200000D01*
G01*
X133687000Y-69109000D01*
G75*
G02*
X133487000Y-69309000I-200000J0D01*
G01*
X133087000Y-69309000D01*
G75*
G02*
X132887000Y-69109000I0J200000D01*
G01*
G37*
G36*
G01*
X132671000Y-92943000D02*
X132671000Y-93493000D01*
G75*
G02*
X132471000Y-93693000I-200000J0D01*
G01*
X132071000Y-93693000D01*
G75*
G02*
X131871000Y-93493000I0J200000D01*
G01*
X131871000Y-92943000D01*
G75*
G02*
X132071000Y-92743000I200000J0D01*
G01*
X132471000Y-92743000D01*
G75*
G02*
X132671000Y-92943000I0J-200000D01*
G01*
G37*
G36*
G01*
X134321000Y-92943000D02*
X134321000Y-93493000D01*
G75*
G02*
X134121000Y-93693000I-200000J0D01*
G01*
X133721000Y-93693000D01*
G75*
G02*
X133521000Y-93493000I0J200000D01*
G01*
X133521000Y-92943000D01*
G75*
G02*
X133721000Y-92743000I200000J0D01*
G01*
X134121000Y-92743000D01*
G75*
G02*
X134321000Y-92943000I0J-200000D01*
G01*
G37*
G36*
G01*
X137839000Y-95271000D02*
X137839000Y-94721000D01*
G75*
G02*
X138039000Y-94521000I200000J0D01*
G01*
X138439000Y-94521000D01*
G75*
G02*
X138639000Y-94721000I0J-200000D01*
G01*
X138639000Y-95271000D01*
G75*
G02*
X138439000Y-95471000I-200000J0D01*
G01*
X138039000Y-95471000D01*
G75*
G02*
X137839000Y-95271000I0J200000D01*
G01*
G37*
G36*
G01*
X136189000Y-95271000D02*
X136189000Y-94721000D01*
G75*
G02*
X136389000Y-94521000I200000J0D01*
G01*
X136789000Y-94521000D01*
G75*
G02*
X136989000Y-94721000I0J-200000D01*
G01*
X136989000Y-95271000D01*
G75*
G02*
X136789000Y-95471000I-200000J0D01*
G01*
X136389000Y-95471000D01*
G75*
G02*
X136189000Y-95271000I0J200000D01*
G01*
G37*
G36*
G01*
X139933000Y-72053000D02*
X140483000Y-72053000D01*
G75*
G02*
X140683000Y-72253000I0J-200000D01*
G01*
X140683000Y-72653000D01*
G75*
G02*
X140483000Y-72853000I-200000J0D01*
G01*
X139933000Y-72853000D01*
G75*
G02*
X139733000Y-72653000I0J200000D01*
G01*
X139733000Y-72253000D01*
G75*
G02*
X139933000Y-72053000I200000J0D01*
G01*
G37*
G36*
G01*
X139933000Y-70403000D02*
X140483000Y-70403000D01*
G75*
G02*
X140683000Y-70603000I0J-200000D01*
G01*
X140683000Y-71003000D01*
G75*
G02*
X140483000Y-71203000I-200000J0D01*
G01*
X139933000Y-71203000D01*
G75*
G02*
X139733000Y-71003000I0J200000D01*
G01*
X139733000Y-70603000D01*
G75*
G02*
X139933000Y-70403000I200000J0D01*
G01*
G37*
G36*
G01*
X129773000Y-94659000D02*
X130323000Y-94659000D01*
G75*
G02*
X130523000Y-94859000I0J-200000D01*
G01*
X130523000Y-95259000D01*
G75*
G02*
X130323000Y-95459000I-200000J0D01*
G01*
X129773000Y-95459000D01*
G75*
G02*
X129573000Y-95259000I0J200000D01*
G01*
X129573000Y-94859000D01*
G75*
G02*
X129773000Y-94659000I200000J0D01*
G01*
G37*
G36*
G01*
X129773000Y-93009000D02*
X130323000Y-93009000D01*
G75*
G02*
X130523000Y-93209000I0J-200000D01*
G01*
X130523000Y-93609000D01*
G75*
G02*
X130323000Y-93809000I-200000J0D01*
G01*
X129773000Y-93809000D01*
G75*
G02*
X129573000Y-93609000I0J200000D01*
G01*
X129573000Y-93209000D01*
G75*
G02*
X129773000Y-93009000I200000J0D01*
G01*
G37*
G36*
G01*
X140483000Y-67647000D02*
X139933000Y-67647000D01*
G75*
G02*
X139733000Y-67447000I0J200000D01*
G01*
X139733000Y-67047000D01*
G75*
G02*
X139933000Y-66847000I200000J0D01*
G01*
X140483000Y-66847000D01*
G75*
G02*
X140683000Y-67047000I0J-200000D01*
G01*
X140683000Y-67447000D01*
G75*
G02*
X140483000Y-67647000I-200000J0D01*
G01*
G37*
G36*
G01*
X140483000Y-69297000D02*
X139933000Y-69297000D01*
G75*
G02*
X139733000Y-69097000I0J200000D01*
G01*
X139733000Y-68697000D01*
G75*
G02*
X139933000Y-68497000I200000J0D01*
G01*
X140483000Y-68497000D01*
G75*
G02*
X140683000Y-68697000I0J-200000D01*
G01*
X140683000Y-69097000D01*
G75*
G02*
X140483000Y-69297000I-200000J0D01*
G01*
G37*
G36*
G01*
X130323000Y-80855000D02*
X129773000Y-80855000D01*
G75*
G02*
X129573000Y-80655000I0J200000D01*
G01*
X129573000Y-80255000D01*
G75*
G02*
X129773000Y-80055000I200000J0D01*
G01*
X130323000Y-80055000D01*
G75*
G02*
X130523000Y-80255000I0J-200000D01*
G01*
X130523000Y-80655000D01*
G75*
G02*
X130323000Y-80855000I-200000J0D01*
G01*
G37*
G36*
G01*
X130323000Y-82505000D02*
X129773000Y-82505000D01*
G75*
G02*
X129573000Y-82305000I0J200000D01*
G01*
X129573000Y-81905000D01*
G75*
G02*
X129773000Y-81705000I200000J0D01*
G01*
X130323000Y-81705000D01*
G75*
G02*
X130523000Y-81905000I0J-200000D01*
G01*
X130523000Y-82305000D01*
G75*
G02*
X130323000Y-82505000I-200000J0D01*
G01*
G37*
G36*
G01*
X130323000Y-68663000D02*
X129773000Y-68663000D01*
G75*
G02*
X129573000Y-68463000I0J200000D01*
G01*
X129573000Y-68063000D01*
G75*
G02*
X129773000Y-67863000I200000J0D01*
G01*
X130323000Y-67863000D01*
G75*
G02*
X130523000Y-68063000I0J-200000D01*
G01*
X130523000Y-68463000D01*
G75*
G02*
X130323000Y-68663000I-200000J0D01*
G01*
G37*
G36*
G01*
X130323000Y-70313000D02*
X129773000Y-70313000D01*
G75*
G02*
X129573000Y-70113000I0J200000D01*
G01*
X129573000Y-69713000D01*
G75*
G02*
X129773000Y-69513000I200000J0D01*
G01*
X130323000Y-69513000D01*
G75*
G02*
X130523000Y-69713000I0J-200000D01*
G01*
X130523000Y-70113000D01*
G75*
G02*
X130323000Y-70313000I-200000J0D01*
G01*
G37*
G36*
G01*
X130323000Y-87459000D02*
X129773000Y-87459000D01*
G75*
G02*
X129573000Y-87259000I0J200000D01*
G01*
X129573000Y-86859000D01*
G75*
G02*
X129773000Y-86659000I200000J0D01*
G01*
X130323000Y-86659000D01*
G75*
G02*
X130523000Y-86859000I0J-200000D01*
G01*
X130523000Y-87259000D01*
G75*
G02*
X130323000Y-87459000I-200000J0D01*
G01*
G37*
G36*
G01*
X130323000Y-89109000D02*
X129773000Y-89109000D01*
G75*
G02*
X129573000Y-88909000I0J200000D01*
G01*
X129573000Y-88509000D01*
G75*
G02*
X129773000Y-88309000I200000J0D01*
G01*
X130323000Y-88309000D01*
G75*
G02*
X130523000Y-88509000I0J-200000D01*
G01*
X130523000Y-88909000D01*
G75*
G02*
X130323000Y-89109000I-200000J0D01*
G01*
G37*
G36*
G01*
X139933000Y-83483000D02*
X140483000Y-83483000D01*
G75*
G02*
X140683000Y-83683000I0J-200000D01*
G01*
X140683000Y-84083000D01*
G75*
G02*
X140483000Y-84283000I-200000J0D01*
G01*
X139933000Y-84283000D01*
G75*
G02*
X139733000Y-84083000I0J200000D01*
G01*
X139733000Y-83683000D01*
G75*
G02*
X139933000Y-83483000I200000J0D01*
G01*
G37*
G36*
G01*
X139933000Y-81833000D02*
X140483000Y-81833000D01*
G75*
G02*
X140683000Y-82033000I0J-200000D01*
G01*
X140683000Y-82433000D01*
G75*
G02*
X140483000Y-82633000I-200000J0D01*
G01*
X139933000Y-82633000D01*
G75*
G02*
X139733000Y-82433000I0J200000D01*
G01*
X139733000Y-82033000D01*
G75*
G02*
X139933000Y-81833000I200000J0D01*
G01*
G37*
G36*
G01*
X139933000Y-94151000D02*
X140483000Y-94151000D01*
G75*
G02*
X140683000Y-94351000I0J-200000D01*
G01*
X140683000Y-94751000D01*
G75*
G02*
X140483000Y-94951000I-200000J0D01*
G01*
X139933000Y-94951000D01*
G75*
G02*
X139733000Y-94751000I0J200000D01*
G01*
X139733000Y-94351000D01*
G75*
G02*
X139933000Y-94151000I200000J0D01*
G01*
G37*
G36*
G01*
X139933000Y-92501000D02*
X140483000Y-92501000D01*
G75*
G02*
X140683000Y-92701000I0J-200000D01*
G01*
X140683000Y-93101000D01*
G75*
G02*
X140483000Y-93301000I-200000J0D01*
G01*
X139933000Y-93301000D01*
G75*
G02*
X139733000Y-93101000I0J200000D01*
G01*
X139733000Y-92701000D01*
G75*
G02*
X139933000Y-92501000I200000J0D01*
G01*
G37*
G36*
G01*
X140483000Y-75267000D02*
X139933000Y-75267000D01*
G75*
G02*
X139733000Y-75067000I0J200000D01*
G01*
X139733000Y-74667000D01*
G75*
G02*
X139933000Y-74467000I200000J0D01*
G01*
X140483000Y-74467000D01*
G75*
G02*
X140683000Y-74667000I0J-200000D01*
G01*
X140683000Y-75067000D01*
G75*
G02*
X140483000Y-75267000I-200000J0D01*
G01*
G37*
G36*
G01*
X140483000Y-76917000D02*
X139933000Y-76917000D01*
G75*
G02*
X139733000Y-76717000I0J200000D01*
G01*
X139733000Y-76317000D01*
G75*
G02*
X139933000Y-76117000I200000J0D01*
G01*
X140483000Y-76117000D01*
G75*
G02*
X140683000Y-76317000I0J-200000D01*
G01*
X140683000Y-76717000D01*
G75*
G02*
X140483000Y-76917000I-200000J0D01*
G01*
G37*
G36*
G01*
X129773000Y-91357000D02*
X130323000Y-91357000D01*
G75*
G02*
X130523000Y-91557000I0J-200000D01*
G01*
X130523000Y-91957000D01*
G75*
G02*
X130323000Y-92157000I-200000J0D01*
G01*
X129773000Y-92157000D01*
G75*
G02*
X129573000Y-91957000I0J200000D01*
G01*
X129573000Y-91557000D01*
G75*
G02*
X129773000Y-91357000I200000J0D01*
G01*
G37*
G36*
G01*
X129773000Y-89707000D02*
X130323000Y-89707000D01*
G75*
G02*
X130523000Y-89907000I0J-200000D01*
G01*
X130523000Y-90307000D01*
G75*
G02*
X130323000Y-90507000I-200000J0D01*
G01*
X129773000Y-90507000D01*
G75*
G02*
X129573000Y-90307000I0J200000D01*
G01*
X129573000Y-89907000D01*
G75*
G02*
X129773000Y-89707000I200000J0D01*
G01*
G37*
G36*
G01*
X138451000Y-68663000D02*
X137901000Y-68663000D01*
G75*
G02*
X137701000Y-68463000I0J200000D01*
G01*
X137701000Y-68063000D01*
G75*
G02*
X137901000Y-67863000I200000J0D01*
G01*
X138451000Y-67863000D01*
G75*
G02*
X138651000Y-68063000I0J-200000D01*
G01*
X138651000Y-68463000D01*
G75*
G02*
X138451000Y-68663000I-200000J0D01*
G01*
G37*
G36*
G01*
X138451000Y-70313000D02*
X137901000Y-70313000D01*
G75*
G02*
X137701000Y-70113000I0J200000D01*
G01*
X137701000Y-69713000D01*
G75*
G02*
X137901000Y-69513000I200000J0D01*
G01*
X138451000Y-69513000D01*
G75*
G02*
X138651000Y-69713000I0J-200000D01*
G01*
X138651000Y-70113000D01*
G75*
G02*
X138451000Y-70313000I-200000J0D01*
G01*
G37*
G36*
G01*
X129773000Y-78403000D02*
X130323000Y-78403000D01*
G75*
G02*
X130523000Y-78603000I0J-200000D01*
G01*
X130523000Y-79003000D01*
G75*
G02*
X130323000Y-79203000I-200000J0D01*
G01*
X129773000Y-79203000D01*
G75*
G02*
X129573000Y-79003000I0J200000D01*
G01*
X129573000Y-78603000D01*
G75*
G02*
X129773000Y-78403000I200000J0D01*
G01*
G37*
G36*
G01*
X129773000Y-76753000D02*
X130323000Y-76753000D01*
G75*
G02*
X130523000Y-76953000I0J-200000D01*
G01*
X130523000Y-77353000D01*
G75*
G02*
X130323000Y-77553000I-200000J0D01*
G01*
X129773000Y-77553000D01*
G75*
G02*
X129573000Y-77353000I0J200000D01*
G01*
X129573000Y-76953000D01*
G75*
G02*
X129773000Y-76753000I200000J0D01*
G01*
G37*
G36*
G01*
X130323000Y-84411000D02*
X129773000Y-84411000D01*
G75*
G02*
X129573000Y-84211000I0J200000D01*
G01*
X129573000Y-83811000D01*
G75*
G02*
X129773000Y-83611000I200000J0D01*
G01*
X130323000Y-83611000D01*
G75*
G02*
X130523000Y-83811000I0J-200000D01*
G01*
X130523000Y-84211000D01*
G75*
G02*
X130323000Y-84411000I-200000J0D01*
G01*
G37*
G36*
G01*
X130323000Y-86061000D02*
X129773000Y-86061000D01*
G75*
G02*
X129573000Y-85861000I0J200000D01*
G01*
X129573000Y-85461000D01*
G75*
G02*
X129773000Y-85261000I200000J0D01*
G01*
X130323000Y-85261000D01*
G75*
G02*
X130523000Y-85461000I0J-200000D01*
G01*
X130523000Y-85861000D01*
G75*
G02*
X130323000Y-86061000I-200000J0D01*
G01*
G37*
G36*
G01*
X140483000Y-85935000D02*
X139933000Y-85935000D01*
G75*
G02*
X139733000Y-85735000I0J200000D01*
G01*
X139733000Y-85335000D01*
G75*
G02*
X139933000Y-85135000I200000J0D01*
G01*
X140483000Y-85135000D01*
G75*
G02*
X140683000Y-85335000I0J-200000D01*
G01*
X140683000Y-85735000D01*
G75*
G02*
X140483000Y-85935000I-200000J0D01*
G01*
G37*
G36*
G01*
X140483000Y-87585000D02*
X139933000Y-87585000D01*
G75*
G02*
X139733000Y-87385000I0J200000D01*
G01*
X139733000Y-86985000D01*
G75*
G02*
X139933000Y-86785000I200000J0D01*
G01*
X140483000Y-86785000D01*
G75*
G02*
X140683000Y-86985000I0J-200000D01*
G01*
X140683000Y-87385000D01*
G75*
G02*
X140483000Y-87585000I-200000J0D01*
G01*
G37*
G36*
G01*
X139933000Y-90087000D02*
X140483000Y-90087000D01*
G75*
G02*
X140683000Y-90287000I0J-200000D01*
G01*
X140683000Y-90687000D01*
G75*
G02*
X140483000Y-90887000I-200000J0D01*
G01*
X139933000Y-90887000D01*
G75*
G02*
X139733000Y-90687000I0J200000D01*
G01*
X139733000Y-90287000D01*
G75*
G02*
X139933000Y-90087000I200000J0D01*
G01*
G37*
G36*
G01*
X139933000Y-88437000D02*
X140483000Y-88437000D01*
G75*
G02*
X140683000Y-88637000I0J-200000D01*
G01*
X140683000Y-89037000D01*
G75*
G02*
X140483000Y-89237000I-200000J0D01*
G01*
X139933000Y-89237000D01*
G75*
G02*
X139733000Y-89037000I0J200000D01*
G01*
X139733000Y-88637000D01*
G75*
G02*
X139933000Y-88437000I200000J0D01*
G01*
G37*
D10*
X138160000Y-74422000D03*
X136160000Y-75372000D03*
X136160000Y-73472000D03*
X132096000Y-88900000D03*
X134096000Y-87950000D03*
X134096000Y-89850000D03*
X138160000Y-80772000D03*
X136160000Y-81722000D03*
X136160000Y-79822000D03*
X132096000Y-77978000D03*
X134096000Y-77028000D03*
X134096000Y-78928000D03*
X132096000Y-72136000D03*
X134096000Y-71186000D03*
X134096000Y-73086000D03*
X132096000Y-83566000D03*
X134096000Y-82616000D03*
X134096000Y-84516000D03*
X138160000Y-86614000D03*
X136160000Y-87564000D03*
X136160000Y-85664000D03*
X138160000Y-91694000D03*
X136160000Y-92644000D03*
X136160000Y-90744000D03*
M02*
