G04 #@! TF.GenerationSoftware,KiCad,Pcbnew,5.1.12-84ad8e8a86~92~ubuntu20.04.1*
G04 #@! TF.CreationDate,2022-05-29T14:18:07-04:00*
G04 #@! TF.ProjectId,fluke9010-protection,666c756b-6539-4303-9130-2d70726f7465,rev?*
G04 #@! TF.SameCoordinates,Original*
G04 #@! TF.FileFunction,Soldermask,Bot*
G04 #@! TF.FilePolarity,Negative*
%FSLAX46Y46*%
G04 Gerber Fmt 4.6, Leading zero omitted, Abs format (unit mm)*
G04 Created by KiCad (PCBNEW 5.1.12-84ad8e8a86~92~ubuntu20.04.1) date 2022-05-29 14:18:07*
%MOMM*%
%LPD*%
G01*
G04 APERTURE LIST*
%ADD10R,2.400000X1.600000*%
%ADD11O,2.400000X1.600000*%
G04 APERTURE END LIST*
G36*
G01*
X133179000Y-85831000D02*
X133179000Y-86381000D01*
G75*
G02*
X132979000Y-86581000I-200000J0D01*
G01*
X132579000Y-86581000D01*
G75*
G02*
X132379000Y-86381000I0J200000D01*
G01*
X132379000Y-85831000D01*
G75*
G02*
X132579000Y-85631000I200000J0D01*
G01*
X132979000Y-85631000D01*
G75*
G02*
X133179000Y-85831000I0J-200000D01*
G01*
G37*
G36*
G01*
X134829000Y-85831000D02*
X134829000Y-86381000D01*
G75*
G02*
X134629000Y-86581000I-200000J0D01*
G01*
X134229000Y-86581000D01*
G75*
G02*
X134029000Y-86381000I0J200000D01*
G01*
X134029000Y-85831000D01*
G75*
G02*
X134229000Y-85631000I200000J0D01*
G01*
X134629000Y-85631000D01*
G75*
G02*
X134829000Y-85831000I0J-200000D01*
G01*
G37*
G36*
G01*
X139617000Y-79777000D02*
X139617000Y-79227000D01*
G75*
G02*
X139817000Y-79027000I200000J0D01*
G01*
X140217000Y-79027000D01*
G75*
G02*
X140417000Y-79227000I0J-200000D01*
G01*
X140417000Y-79777000D01*
G75*
G02*
X140217000Y-79977000I-200000J0D01*
G01*
X139817000Y-79977000D01*
G75*
G02*
X139617000Y-79777000I0J200000D01*
G01*
G37*
G36*
G01*
X137967000Y-79777000D02*
X137967000Y-79227000D01*
G75*
G02*
X138167000Y-79027000I200000J0D01*
G01*
X138567000Y-79027000D01*
G75*
G02*
X138767000Y-79227000I0J-200000D01*
G01*
X138767000Y-79777000D01*
G75*
G02*
X138567000Y-79977000I-200000J0D01*
G01*
X138167000Y-79977000D01*
G75*
G02*
X137967000Y-79777000I0J200000D01*
G01*
G37*
G36*
G01*
X133076000Y-81047000D02*
X133076000Y-80497000D01*
G75*
G02*
X133276000Y-80297000I200000J0D01*
G01*
X133676000Y-80297000D01*
G75*
G02*
X133876000Y-80497000I0J-200000D01*
G01*
X133876000Y-81047000D01*
G75*
G02*
X133676000Y-81247000I-200000J0D01*
G01*
X133276000Y-81247000D01*
G75*
G02*
X133076000Y-81047000I0J200000D01*
G01*
G37*
G36*
G01*
X131426000Y-81047000D02*
X131426000Y-80497000D01*
G75*
G02*
X131626000Y-80297000I200000J0D01*
G01*
X132026000Y-80297000D01*
G75*
G02*
X132226000Y-80497000I0J-200000D01*
G01*
X132226000Y-81047000D01*
G75*
G02*
X132026000Y-81247000I-200000J0D01*
G01*
X131626000Y-81247000D01*
G75*
G02*
X131426000Y-81047000I0J200000D01*
G01*
G37*
G36*
G01*
X130323000Y-69933000D02*
X129773000Y-69933000D01*
G75*
G02*
X129573000Y-69733000I0J200000D01*
G01*
X129573000Y-69333000D01*
G75*
G02*
X129773000Y-69133000I200000J0D01*
G01*
X130323000Y-69133000D01*
G75*
G02*
X130523000Y-69333000I0J-200000D01*
G01*
X130523000Y-69733000D01*
G75*
G02*
X130323000Y-69933000I-200000J0D01*
G01*
G37*
G36*
G01*
X130323000Y-71583000D02*
X129773000Y-71583000D01*
G75*
G02*
X129573000Y-71383000I0J200000D01*
G01*
X129573000Y-70983000D01*
G75*
G02*
X129773000Y-70783000I200000J0D01*
G01*
X130323000Y-70783000D01*
G75*
G02*
X130523000Y-70983000I0J-200000D01*
G01*
X130523000Y-71383000D01*
G75*
G02*
X130323000Y-71583000I-200000J0D01*
G01*
G37*
G36*
G01*
X137839000Y-83841000D02*
X137839000Y-83291000D01*
G75*
G02*
X138039000Y-83091000I200000J0D01*
G01*
X138439000Y-83091000D01*
G75*
G02*
X138639000Y-83291000I0J-200000D01*
G01*
X138639000Y-83841000D01*
G75*
G02*
X138439000Y-84041000I-200000J0D01*
G01*
X138039000Y-84041000D01*
G75*
G02*
X137839000Y-83841000I0J200000D01*
G01*
G37*
G36*
G01*
X136189000Y-83841000D02*
X136189000Y-83291000D01*
G75*
G02*
X136389000Y-83091000I200000J0D01*
G01*
X136789000Y-83091000D01*
G75*
G02*
X136989000Y-83291000I0J-200000D01*
G01*
X136989000Y-83841000D01*
G75*
G02*
X136789000Y-84041000I-200000J0D01*
G01*
X136389000Y-84041000D01*
G75*
G02*
X136189000Y-83841000I0J200000D01*
G01*
G37*
G36*
G01*
X129773000Y-74847000D02*
X130323000Y-74847000D01*
G75*
G02*
X130523000Y-75047000I0J-200000D01*
G01*
X130523000Y-75447000D01*
G75*
G02*
X130323000Y-75647000I-200000J0D01*
G01*
X129773000Y-75647000D01*
G75*
G02*
X129573000Y-75447000I0J200000D01*
G01*
X129573000Y-75047000D01*
G75*
G02*
X129773000Y-74847000I200000J0D01*
G01*
G37*
G36*
G01*
X129773000Y-73197000D02*
X130323000Y-73197000D01*
G75*
G02*
X130523000Y-73397000I0J-200000D01*
G01*
X130523000Y-73797000D01*
G75*
G02*
X130323000Y-73997000I-200000J0D01*
G01*
X129773000Y-73997000D01*
G75*
G02*
X129573000Y-73797000I0J200000D01*
G01*
X129573000Y-73397000D01*
G75*
G02*
X129773000Y-73197000I200000J0D01*
G01*
G37*
D10*
X127516000Y-65382000D03*
D11*
X127516000Y-67922000D03*
X142756000Y-95862000D03*
X127516000Y-70462000D03*
X142756000Y-93322000D03*
X127516000Y-73002000D03*
X142756000Y-90782000D03*
X127516000Y-75542000D03*
X142756000Y-88242000D03*
X127516000Y-78082000D03*
X142756000Y-85702000D03*
X127516000Y-80622000D03*
X142756000Y-83162000D03*
X127516000Y-83162000D03*
X142756000Y-80622000D03*
X127516000Y-85702000D03*
X142756000Y-78082000D03*
X127516000Y-88242000D03*
X142756000Y-75542000D03*
X127516000Y-90782000D03*
X142756000Y-73002000D03*
X127516000Y-93322000D03*
X142756000Y-70462000D03*
X127516000Y-95862000D03*
X142756000Y-67922000D03*
X142756000Y-65382000D03*
M02*
