G04 #@! TF.GenerationSoftware,KiCad,Pcbnew,5.1.12-84ad8e8a86~92~ubuntu20.04.1*
G04 #@! TF.CreationDate,2022-05-29T14:18:07-04:00*
G04 #@! TF.ProjectId,fluke9010-protection,666c756b-6539-4303-9130-2d70726f7465,rev?*
G04 #@! TF.SameCoordinates,Original*
G04 #@! TF.FileFunction,Copper,L1,Top*
G04 #@! TF.FilePolarity,Positive*
%FSLAX46Y46*%
G04 Gerber Fmt 4.6, Leading zero omitted, Abs format (unit mm)*
G04 Created by KiCad (PCBNEW 5.1.12-84ad8e8a86~92~ubuntu20.04.1) date 2022-05-29 14:18:07*
%MOMM*%
%LPD*%
G01*
G04 APERTURE LIST*
G04 #@! TA.AperFunction,ComponentPad*
%ADD10R,2.400000X1.600000*%
G04 #@! TD*
G04 #@! TA.AperFunction,ComponentPad*
%ADD11O,2.400000X1.600000*%
G04 #@! TD*
G04 #@! TA.AperFunction,SMDPad,CuDef*
%ADD12R,0.900000X0.800000*%
G04 #@! TD*
G04 #@! TA.AperFunction,ViaPad*
%ADD13C,0.800000*%
G04 #@! TD*
G04 #@! TA.AperFunction,Conductor*
%ADD14C,0.500000*%
G04 #@! TD*
G04 APERTURE END LIST*
G04 #@! TA.AperFunction,SMDPad,CuDef*
G36*
G01*
X134537000Y-69109000D02*
X134537000Y-68559000D01*
G75*
G02*
X134737000Y-68359000I200000J0D01*
G01*
X135137000Y-68359000D01*
G75*
G02*
X135337000Y-68559000I0J-200000D01*
G01*
X135337000Y-69109000D01*
G75*
G02*
X135137000Y-69309000I-200000J0D01*
G01*
X134737000Y-69309000D01*
G75*
G02*
X134537000Y-69109000I0J200000D01*
G01*
G37*
G04 #@! TD.AperFunction*
G04 #@! TA.AperFunction,SMDPad,CuDef*
G36*
G01*
X132887000Y-69109000D02*
X132887000Y-68559000D01*
G75*
G02*
X133087000Y-68359000I200000J0D01*
G01*
X133487000Y-68359000D01*
G75*
G02*
X133687000Y-68559000I0J-200000D01*
G01*
X133687000Y-69109000D01*
G75*
G02*
X133487000Y-69309000I-200000J0D01*
G01*
X133087000Y-69309000D01*
G75*
G02*
X132887000Y-69109000I0J200000D01*
G01*
G37*
G04 #@! TD.AperFunction*
G04 #@! TA.AperFunction,SMDPad,CuDef*
G36*
G01*
X132671000Y-92943000D02*
X132671000Y-93493000D01*
G75*
G02*
X132471000Y-93693000I-200000J0D01*
G01*
X132071000Y-93693000D01*
G75*
G02*
X131871000Y-93493000I0J200000D01*
G01*
X131871000Y-92943000D01*
G75*
G02*
X132071000Y-92743000I200000J0D01*
G01*
X132471000Y-92743000D01*
G75*
G02*
X132671000Y-92943000I0J-200000D01*
G01*
G37*
G04 #@! TD.AperFunction*
G04 #@! TA.AperFunction,SMDPad,CuDef*
G36*
G01*
X134321000Y-92943000D02*
X134321000Y-93493000D01*
G75*
G02*
X134121000Y-93693000I-200000J0D01*
G01*
X133721000Y-93693000D01*
G75*
G02*
X133521000Y-93493000I0J200000D01*
G01*
X133521000Y-92943000D01*
G75*
G02*
X133721000Y-92743000I200000J0D01*
G01*
X134121000Y-92743000D01*
G75*
G02*
X134321000Y-92943000I0J-200000D01*
G01*
G37*
G04 #@! TD.AperFunction*
G04 #@! TA.AperFunction,SMDPad,CuDef*
G36*
G01*
X137839000Y-95271000D02*
X137839000Y-94721000D01*
G75*
G02*
X138039000Y-94521000I200000J0D01*
G01*
X138439000Y-94521000D01*
G75*
G02*
X138639000Y-94721000I0J-200000D01*
G01*
X138639000Y-95271000D01*
G75*
G02*
X138439000Y-95471000I-200000J0D01*
G01*
X138039000Y-95471000D01*
G75*
G02*
X137839000Y-95271000I0J200000D01*
G01*
G37*
G04 #@! TD.AperFunction*
G04 #@! TA.AperFunction,SMDPad,CuDef*
G36*
G01*
X136189000Y-95271000D02*
X136189000Y-94721000D01*
G75*
G02*
X136389000Y-94521000I200000J0D01*
G01*
X136789000Y-94521000D01*
G75*
G02*
X136989000Y-94721000I0J-200000D01*
G01*
X136989000Y-95271000D01*
G75*
G02*
X136789000Y-95471000I-200000J0D01*
G01*
X136389000Y-95471000D01*
G75*
G02*
X136189000Y-95271000I0J200000D01*
G01*
G37*
G04 #@! TD.AperFunction*
G04 #@! TA.AperFunction,SMDPad,CuDef*
G36*
G01*
X139933000Y-72053000D02*
X140483000Y-72053000D01*
G75*
G02*
X140683000Y-72253000I0J-200000D01*
G01*
X140683000Y-72653000D01*
G75*
G02*
X140483000Y-72853000I-200000J0D01*
G01*
X139933000Y-72853000D01*
G75*
G02*
X139733000Y-72653000I0J200000D01*
G01*
X139733000Y-72253000D01*
G75*
G02*
X139933000Y-72053000I200000J0D01*
G01*
G37*
G04 #@! TD.AperFunction*
G04 #@! TA.AperFunction,SMDPad,CuDef*
G36*
G01*
X139933000Y-70403000D02*
X140483000Y-70403000D01*
G75*
G02*
X140683000Y-70603000I0J-200000D01*
G01*
X140683000Y-71003000D01*
G75*
G02*
X140483000Y-71203000I-200000J0D01*
G01*
X139933000Y-71203000D01*
G75*
G02*
X139733000Y-71003000I0J200000D01*
G01*
X139733000Y-70603000D01*
G75*
G02*
X139933000Y-70403000I200000J0D01*
G01*
G37*
G04 #@! TD.AperFunction*
G04 #@! TA.AperFunction,SMDPad,CuDef*
G36*
G01*
X129773000Y-94659000D02*
X130323000Y-94659000D01*
G75*
G02*
X130523000Y-94859000I0J-200000D01*
G01*
X130523000Y-95259000D01*
G75*
G02*
X130323000Y-95459000I-200000J0D01*
G01*
X129773000Y-95459000D01*
G75*
G02*
X129573000Y-95259000I0J200000D01*
G01*
X129573000Y-94859000D01*
G75*
G02*
X129773000Y-94659000I200000J0D01*
G01*
G37*
G04 #@! TD.AperFunction*
G04 #@! TA.AperFunction,SMDPad,CuDef*
G36*
G01*
X129773000Y-93009000D02*
X130323000Y-93009000D01*
G75*
G02*
X130523000Y-93209000I0J-200000D01*
G01*
X130523000Y-93609000D01*
G75*
G02*
X130323000Y-93809000I-200000J0D01*
G01*
X129773000Y-93809000D01*
G75*
G02*
X129573000Y-93609000I0J200000D01*
G01*
X129573000Y-93209000D01*
G75*
G02*
X129773000Y-93009000I200000J0D01*
G01*
G37*
G04 #@! TD.AperFunction*
G04 #@! TA.AperFunction,SMDPad,CuDef*
G36*
G01*
X140483000Y-67647000D02*
X139933000Y-67647000D01*
G75*
G02*
X139733000Y-67447000I0J200000D01*
G01*
X139733000Y-67047000D01*
G75*
G02*
X139933000Y-66847000I200000J0D01*
G01*
X140483000Y-66847000D01*
G75*
G02*
X140683000Y-67047000I0J-200000D01*
G01*
X140683000Y-67447000D01*
G75*
G02*
X140483000Y-67647000I-200000J0D01*
G01*
G37*
G04 #@! TD.AperFunction*
G04 #@! TA.AperFunction,SMDPad,CuDef*
G36*
G01*
X140483000Y-69297000D02*
X139933000Y-69297000D01*
G75*
G02*
X139733000Y-69097000I0J200000D01*
G01*
X139733000Y-68697000D01*
G75*
G02*
X139933000Y-68497000I200000J0D01*
G01*
X140483000Y-68497000D01*
G75*
G02*
X140683000Y-68697000I0J-200000D01*
G01*
X140683000Y-69097000D01*
G75*
G02*
X140483000Y-69297000I-200000J0D01*
G01*
G37*
G04 #@! TD.AperFunction*
G04 #@! TA.AperFunction,SMDPad,CuDef*
G36*
G01*
X130323000Y-80855000D02*
X129773000Y-80855000D01*
G75*
G02*
X129573000Y-80655000I0J200000D01*
G01*
X129573000Y-80255000D01*
G75*
G02*
X129773000Y-80055000I200000J0D01*
G01*
X130323000Y-80055000D01*
G75*
G02*
X130523000Y-80255000I0J-200000D01*
G01*
X130523000Y-80655000D01*
G75*
G02*
X130323000Y-80855000I-200000J0D01*
G01*
G37*
G04 #@! TD.AperFunction*
G04 #@! TA.AperFunction,SMDPad,CuDef*
G36*
G01*
X130323000Y-82505000D02*
X129773000Y-82505000D01*
G75*
G02*
X129573000Y-82305000I0J200000D01*
G01*
X129573000Y-81905000D01*
G75*
G02*
X129773000Y-81705000I200000J0D01*
G01*
X130323000Y-81705000D01*
G75*
G02*
X130523000Y-81905000I0J-200000D01*
G01*
X130523000Y-82305000D01*
G75*
G02*
X130323000Y-82505000I-200000J0D01*
G01*
G37*
G04 #@! TD.AperFunction*
G04 #@! TA.AperFunction,SMDPad,CuDef*
G36*
G01*
X130323000Y-68663000D02*
X129773000Y-68663000D01*
G75*
G02*
X129573000Y-68463000I0J200000D01*
G01*
X129573000Y-68063000D01*
G75*
G02*
X129773000Y-67863000I200000J0D01*
G01*
X130323000Y-67863000D01*
G75*
G02*
X130523000Y-68063000I0J-200000D01*
G01*
X130523000Y-68463000D01*
G75*
G02*
X130323000Y-68663000I-200000J0D01*
G01*
G37*
G04 #@! TD.AperFunction*
G04 #@! TA.AperFunction,SMDPad,CuDef*
G36*
G01*
X130323000Y-70313000D02*
X129773000Y-70313000D01*
G75*
G02*
X129573000Y-70113000I0J200000D01*
G01*
X129573000Y-69713000D01*
G75*
G02*
X129773000Y-69513000I200000J0D01*
G01*
X130323000Y-69513000D01*
G75*
G02*
X130523000Y-69713000I0J-200000D01*
G01*
X130523000Y-70113000D01*
G75*
G02*
X130323000Y-70313000I-200000J0D01*
G01*
G37*
G04 #@! TD.AperFunction*
G04 #@! TA.AperFunction,SMDPad,CuDef*
G36*
G01*
X130323000Y-87459000D02*
X129773000Y-87459000D01*
G75*
G02*
X129573000Y-87259000I0J200000D01*
G01*
X129573000Y-86859000D01*
G75*
G02*
X129773000Y-86659000I200000J0D01*
G01*
X130323000Y-86659000D01*
G75*
G02*
X130523000Y-86859000I0J-200000D01*
G01*
X130523000Y-87259000D01*
G75*
G02*
X130323000Y-87459000I-200000J0D01*
G01*
G37*
G04 #@! TD.AperFunction*
G04 #@! TA.AperFunction,SMDPad,CuDef*
G36*
G01*
X130323000Y-89109000D02*
X129773000Y-89109000D01*
G75*
G02*
X129573000Y-88909000I0J200000D01*
G01*
X129573000Y-88509000D01*
G75*
G02*
X129773000Y-88309000I200000J0D01*
G01*
X130323000Y-88309000D01*
G75*
G02*
X130523000Y-88509000I0J-200000D01*
G01*
X130523000Y-88909000D01*
G75*
G02*
X130323000Y-89109000I-200000J0D01*
G01*
G37*
G04 #@! TD.AperFunction*
G04 #@! TA.AperFunction,SMDPad,CuDef*
G36*
G01*
X139933000Y-83483000D02*
X140483000Y-83483000D01*
G75*
G02*
X140683000Y-83683000I0J-200000D01*
G01*
X140683000Y-84083000D01*
G75*
G02*
X140483000Y-84283000I-200000J0D01*
G01*
X139933000Y-84283000D01*
G75*
G02*
X139733000Y-84083000I0J200000D01*
G01*
X139733000Y-83683000D01*
G75*
G02*
X139933000Y-83483000I200000J0D01*
G01*
G37*
G04 #@! TD.AperFunction*
G04 #@! TA.AperFunction,SMDPad,CuDef*
G36*
G01*
X139933000Y-81833000D02*
X140483000Y-81833000D01*
G75*
G02*
X140683000Y-82033000I0J-200000D01*
G01*
X140683000Y-82433000D01*
G75*
G02*
X140483000Y-82633000I-200000J0D01*
G01*
X139933000Y-82633000D01*
G75*
G02*
X139733000Y-82433000I0J200000D01*
G01*
X139733000Y-82033000D01*
G75*
G02*
X139933000Y-81833000I200000J0D01*
G01*
G37*
G04 #@! TD.AperFunction*
G04 #@! TA.AperFunction,SMDPad,CuDef*
G36*
G01*
X139933000Y-94151000D02*
X140483000Y-94151000D01*
G75*
G02*
X140683000Y-94351000I0J-200000D01*
G01*
X140683000Y-94751000D01*
G75*
G02*
X140483000Y-94951000I-200000J0D01*
G01*
X139933000Y-94951000D01*
G75*
G02*
X139733000Y-94751000I0J200000D01*
G01*
X139733000Y-94351000D01*
G75*
G02*
X139933000Y-94151000I200000J0D01*
G01*
G37*
G04 #@! TD.AperFunction*
G04 #@! TA.AperFunction,SMDPad,CuDef*
G36*
G01*
X139933000Y-92501000D02*
X140483000Y-92501000D01*
G75*
G02*
X140683000Y-92701000I0J-200000D01*
G01*
X140683000Y-93101000D01*
G75*
G02*
X140483000Y-93301000I-200000J0D01*
G01*
X139933000Y-93301000D01*
G75*
G02*
X139733000Y-93101000I0J200000D01*
G01*
X139733000Y-92701000D01*
G75*
G02*
X139933000Y-92501000I200000J0D01*
G01*
G37*
G04 #@! TD.AperFunction*
G04 #@! TA.AperFunction,SMDPad,CuDef*
G36*
G01*
X140483000Y-75267000D02*
X139933000Y-75267000D01*
G75*
G02*
X139733000Y-75067000I0J200000D01*
G01*
X139733000Y-74667000D01*
G75*
G02*
X139933000Y-74467000I200000J0D01*
G01*
X140483000Y-74467000D01*
G75*
G02*
X140683000Y-74667000I0J-200000D01*
G01*
X140683000Y-75067000D01*
G75*
G02*
X140483000Y-75267000I-200000J0D01*
G01*
G37*
G04 #@! TD.AperFunction*
G04 #@! TA.AperFunction,SMDPad,CuDef*
G36*
G01*
X140483000Y-76917000D02*
X139933000Y-76917000D01*
G75*
G02*
X139733000Y-76717000I0J200000D01*
G01*
X139733000Y-76317000D01*
G75*
G02*
X139933000Y-76117000I200000J0D01*
G01*
X140483000Y-76117000D01*
G75*
G02*
X140683000Y-76317000I0J-200000D01*
G01*
X140683000Y-76717000D01*
G75*
G02*
X140483000Y-76917000I-200000J0D01*
G01*
G37*
G04 #@! TD.AperFunction*
G04 #@! TA.AperFunction,SMDPad,CuDef*
G36*
G01*
X129773000Y-91357000D02*
X130323000Y-91357000D01*
G75*
G02*
X130523000Y-91557000I0J-200000D01*
G01*
X130523000Y-91957000D01*
G75*
G02*
X130323000Y-92157000I-200000J0D01*
G01*
X129773000Y-92157000D01*
G75*
G02*
X129573000Y-91957000I0J200000D01*
G01*
X129573000Y-91557000D01*
G75*
G02*
X129773000Y-91357000I200000J0D01*
G01*
G37*
G04 #@! TD.AperFunction*
G04 #@! TA.AperFunction,SMDPad,CuDef*
G36*
G01*
X129773000Y-89707000D02*
X130323000Y-89707000D01*
G75*
G02*
X130523000Y-89907000I0J-200000D01*
G01*
X130523000Y-90307000D01*
G75*
G02*
X130323000Y-90507000I-200000J0D01*
G01*
X129773000Y-90507000D01*
G75*
G02*
X129573000Y-90307000I0J200000D01*
G01*
X129573000Y-89907000D01*
G75*
G02*
X129773000Y-89707000I200000J0D01*
G01*
G37*
G04 #@! TD.AperFunction*
G04 #@! TA.AperFunction,SMDPad,CuDef*
G36*
G01*
X138451000Y-68663000D02*
X137901000Y-68663000D01*
G75*
G02*
X137701000Y-68463000I0J200000D01*
G01*
X137701000Y-68063000D01*
G75*
G02*
X137901000Y-67863000I200000J0D01*
G01*
X138451000Y-67863000D01*
G75*
G02*
X138651000Y-68063000I0J-200000D01*
G01*
X138651000Y-68463000D01*
G75*
G02*
X138451000Y-68663000I-200000J0D01*
G01*
G37*
G04 #@! TD.AperFunction*
G04 #@! TA.AperFunction,SMDPad,CuDef*
G36*
G01*
X138451000Y-70313000D02*
X137901000Y-70313000D01*
G75*
G02*
X137701000Y-70113000I0J200000D01*
G01*
X137701000Y-69713000D01*
G75*
G02*
X137901000Y-69513000I200000J0D01*
G01*
X138451000Y-69513000D01*
G75*
G02*
X138651000Y-69713000I0J-200000D01*
G01*
X138651000Y-70113000D01*
G75*
G02*
X138451000Y-70313000I-200000J0D01*
G01*
G37*
G04 #@! TD.AperFunction*
G04 #@! TA.AperFunction,SMDPad,CuDef*
G36*
G01*
X129773000Y-78403000D02*
X130323000Y-78403000D01*
G75*
G02*
X130523000Y-78603000I0J-200000D01*
G01*
X130523000Y-79003000D01*
G75*
G02*
X130323000Y-79203000I-200000J0D01*
G01*
X129773000Y-79203000D01*
G75*
G02*
X129573000Y-79003000I0J200000D01*
G01*
X129573000Y-78603000D01*
G75*
G02*
X129773000Y-78403000I200000J0D01*
G01*
G37*
G04 #@! TD.AperFunction*
G04 #@! TA.AperFunction,SMDPad,CuDef*
G36*
G01*
X129773000Y-76753000D02*
X130323000Y-76753000D01*
G75*
G02*
X130523000Y-76953000I0J-200000D01*
G01*
X130523000Y-77353000D01*
G75*
G02*
X130323000Y-77553000I-200000J0D01*
G01*
X129773000Y-77553000D01*
G75*
G02*
X129573000Y-77353000I0J200000D01*
G01*
X129573000Y-76953000D01*
G75*
G02*
X129773000Y-76753000I200000J0D01*
G01*
G37*
G04 #@! TD.AperFunction*
G04 #@! TA.AperFunction,SMDPad,CuDef*
G36*
G01*
X130323000Y-84411000D02*
X129773000Y-84411000D01*
G75*
G02*
X129573000Y-84211000I0J200000D01*
G01*
X129573000Y-83811000D01*
G75*
G02*
X129773000Y-83611000I200000J0D01*
G01*
X130323000Y-83611000D01*
G75*
G02*
X130523000Y-83811000I0J-200000D01*
G01*
X130523000Y-84211000D01*
G75*
G02*
X130323000Y-84411000I-200000J0D01*
G01*
G37*
G04 #@! TD.AperFunction*
G04 #@! TA.AperFunction,SMDPad,CuDef*
G36*
G01*
X130323000Y-86061000D02*
X129773000Y-86061000D01*
G75*
G02*
X129573000Y-85861000I0J200000D01*
G01*
X129573000Y-85461000D01*
G75*
G02*
X129773000Y-85261000I200000J0D01*
G01*
X130323000Y-85261000D01*
G75*
G02*
X130523000Y-85461000I0J-200000D01*
G01*
X130523000Y-85861000D01*
G75*
G02*
X130323000Y-86061000I-200000J0D01*
G01*
G37*
G04 #@! TD.AperFunction*
G04 #@! TA.AperFunction,SMDPad,CuDef*
G36*
G01*
X140483000Y-85935000D02*
X139933000Y-85935000D01*
G75*
G02*
X139733000Y-85735000I0J200000D01*
G01*
X139733000Y-85335000D01*
G75*
G02*
X139933000Y-85135000I200000J0D01*
G01*
X140483000Y-85135000D01*
G75*
G02*
X140683000Y-85335000I0J-200000D01*
G01*
X140683000Y-85735000D01*
G75*
G02*
X140483000Y-85935000I-200000J0D01*
G01*
G37*
G04 #@! TD.AperFunction*
G04 #@! TA.AperFunction,SMDPad,CuDef*
G36*
G01*
X140483000Y-87585000D02*
X139933000Y-87585000D01*
G75*
G02*
X139733000Y-87385000I0J200000D01*
G01*
X139733000Y-86985000D01*
G75*
G02*
X139933000Y-86785000I200000J0D01*
G01*
X140483000Y-86785000D01*
G75*
G02*
X140683000Y-86985000I0J-200000D01*
G01*
X140683000Y-87385000D01*
G75*
G02*
X140483000Y-87585000I-200000J0D01*
G01*
G37*
G04 #@! TD.AperFunction*
G04 #@! TA.AperFunction,SMDPad,CuDef*
G36*
G01*
X139933000Y-90087000D02*
X140483000Y-90087000D01*
G75*
G02*
X140683000Y-90287000I0J-200000D01*
G01*
X140683000Y-90687000D01*
G75*
G02*
X140483000Y-90887000I-200000J0D01*
G01*
X139933000Y-90887000D01*
G75*
G02*
X139733000Y-90687000I0J200000D01*
G01*
X139733000Y-90287000D01*
G75*
G02*
X139933000Y-90087000I200000J0D01*
G01*
G37*
G04 #@! TD.AperFunction*
G04 #@! TA.AperFunction,SMDPad,CuDef*
G36*
G01*
X139933000Y-88437000D02*
X140483000Y-88437000D01*
G75*
G02*
X140683000Y-88637000I0J-200000D01*
G01*
X140683000Y-89037000D01*
G75*
G02*
X140483000Y-89237000I-200000J0D01*
G01*
X139933000Y-89237000D01*
G75*
G02*
X139733000Y-89037000I0J200000D01*
G01*
X139733000Y-88637000D01*
G75*
G02*
X139933000Y-88437000I200000J0D01*
G01*
G37*
G04 #@! TD.AperFunction*
D10*
X127516000Y-65382000D03*
D11*
X127516000Y-67922000D03*
X142756000Y-95862000D03*
X127516000Y-70462000D03*
X142756000Y-93322000D03*
X127516000Y-73002000D03*
X142756000Y-90782000D03*
X127516000Y-75542000D03*
X142756000Y-88242000D03*
X127516000Y-78082000D03*
X142756000Y-85702000D03*
X127516000Y-80622000D03*
X142756000Y-83162000D03*
X127516000Y-83162000D03*
X142756000Y-80622000D03*
X127516000Y-85702000D03*
X142756000Y-78082000D03*
X127516000Y-88242000D03*
X142756000Y-75542000D03*
X127516000Y-90782000D03*
X142756000Y-73002000D03*
X127516000Y-93322000D03*
X142756000Y-70462000D03*
X127516000Y-95862000D03*
X142756000Y-67922000D03*
X142756000Y-65382000D03*
D12*
X138160000Y-74422000D03*
X136160000Y-75372000D03*
X136160000Y-73472000D03*
X132096000Y-88900000D03*
X134096000Y-87950000D03*
X134096000Y-89850000D03*
X138160000Y-80772000D03*
X136160000Y-81722000D03*
X136160000Y-79822000D03*
X132096000Y-77978000D03*
X134096000Y-77028000D03*
X134096000Y-78928000D03*
X132096000Y-72136000D03*
X134096000Y-71186000D03*
X134096000Y-73086000D03*
X132096000Y-83566000D03*
X134096000Y-82616000D03*
X134096000Y-84516000D03*
X138160000Y-86614000D03*
X136160000Y-87564000D03*
X136160000Y-85664000D03*
X138160000Y-91694000D03*
X136160000Y-92644000D03*
X136160000Y-90744000D03*
D13*
X135382000Y-74422000D03*
X136906000Y-78232000D03*
X136906000Y-70358000D03*
X131056069Y-78487471D03*
X138938000Y-85344000D03*
X139262542Y-74369460D03*
X139262542Y-72460542D03*
X131318000Y-87376000D03*
D14*
X142161000Y-88837000D02*
X142756000Y-88242000D01*
X140208000Y-88837000D02*
X142161000Y-88837000D01*
X138160000Y-90885000D02*
X138160000Y-91694000D01*
X140208000Y-88837000D02*
X138160000Y-90885000D01*
X131032000Y-71186000D02*
X134096000Y-71186000D01*
X129216000Y-73002000D02*
X131032000Y-71186000D01*
X127516000Y-73002000D02*
X129216000Y-73002000D01*
X133195999Y-73846001D02*
X134721998Y-75372000D01*
X133195999Y-72086001D02*
X133195999Y-73846001D01*
X134721998Y-75372000D02*
X136160000Y-75372000D01*
X134096000Y-71186000D02*
X133195999Y-72086001D01*
X135752000Y-75372000D02*
X134096000Y-77028000D01*
X136160000Y-75372000D02*
X135752000Y-75372000D01*
X133195999Y-81715999D02*
X134096000Y-82616000D01*
X133195999Y-77928001D02*
X133195999Y-81715999D01*
X134096000Y-77028000D02*
X133195999Y-77928001D01*
X135266000Y-82616000D02*
X136160000Y-81722000D01*
X134096000Y-82616000D02*
X135266000Y-82616000D01*
X133195999Y-87049999D02*
X134096000Y-87950000D01*
X133195999Y-83516001D02*
X133195999Y-87049999D01*
X134096000Y-82616000D02*
X133195999Y-83516001D01*
X135774000Y-87950000D02*
X136160000Y-87564000D01*
X134096000Y-87950000D02*
X135774000Y-87950000D01*
X133195999Y-88850001D02*
X134096000Y-87950000D01*
X133195999Y-90629999D02*
X133195999Y-88850001D01*
X135210000Y-92644000D02*
X133195999Y-90629999D01*
X136160000Y-92644000D02*
X135210000Y-92644000D01*
X133287000Y-70377000D02*
X134096000Y-71186000D01*
X133287000Y-68834000D02*
X133287000Y-70377000D01*
X136160000Y-75200000D02*
X135382000Y-74422000D01*
X136160000Y-75372000D02*
X136160000Y-75200000D01*
X134636000Y-93218000D02*
X135210000Y-92644000D01*
X133921000Y-93218000D02*
X134636000Y-93218000D01*
X136589000Y-93073000D02*
X136160000Y-92644000D01*
X136589000Y-94996000D02*
X136589000Y-93073000D01*
X135774000Y-73086000D02*
X136160000Y-73472000D01*
X134096000Y-73086000D02*
X135774000Y-73086000D01*
X137060001Y-74372001D02*
X137060001Y-75963999D01*
X137060001Y-75963999D02*
X134096000Y-78928000D01*
X136160000Y-73472000D02*
X137060001Y-74372001D01*
X135266000Y-78928000D02*
X136160000Y-79822000D01*
X134096000Y-78928000D02*
X135266000Y-78928000D01*
X135026002Y-84516000D02*
X134096000Y-84516000D01*
X137060001Y-82482001D02*
X135026002Y-84516000D01*
X137060001Y-80722001D02*
X137060001Y-82482001D01*
X136160000Y-79822000D02*
X137060001Y-80722001D01*
X135012000Y-84516000D02*
X136160000Y-85664000D01*
X134096000Y-84516000D02*
X135012000Y-84516000D01*
X135534002Y-89850000D02*
X134096000Y-89850000D01*
X137060001Y-88324001D02*
X135534002Y-89850000D01*
X137060001Y-86564001D02*
X137060001Y-88324001D01*
X136160000Y-85664000D02*
X137060001Y-86564001D01*
X135266000Y-89850000D02*
X136160000Y-90744000D01*
X134096000Y-89850000D02*
X135266000Y-89850000D01*
X142286000Y-73472000D02*
X136160000Y-73472000D01*
X142756000Y-73002000D02*
X142286000Y-73472000D01*
X139637000Y-86614000D02*
X140208000Y-87185000D01*
X138160000Y-86614000D02*
X139637000Y-86614000D01*
X141273000Y-87185000D02*
X142756000Y-85702000D01*
X140208000Y-87185000D02*
X141273000Y-87185000D01*
X132096000Y-83566000D02*
X132096000Y-83613000D01*
X130015000Y-85661000D02*
X127516000Y-83162000D01*
X130048000Y-85661000D02*
X130015000Y-85661000D01*
X127722990Y-82955010D02*
X127516000Y-83162000D01*
X131485010Y-82955010D02*
X127722990Y-82955010D01*
X132096000Y-83566000D02*
X131485010Y-82955010D01*
X129753000Y-75542000D02*
X130048000Y-75247000D01*
X127516000Y-75542000D02*
X129753000Y-75542000D01*
X132096000Y-73199000D02*
X130048000Y-75247000D01*
X132096000Y-72136000D02*
X132096000Y-73199000D01*
X129119000Y-78082000D02*
X130048000Y-77153000D01*
X127516000Y-78082000D02*
X129119000Y-78082000D01*
X131271000Y-77153000D02*
X132096000Y-77978000D01*
X130048000Y-77153000D02*
X131271000Y-77153000D01*
X142606000Y-80772000D02*
X142756000Y-80622000D01*
X138160000Y-80772000D02*
X142606000Y-80772000D01*
X138160000Y-80772000D02*
X138160000Y-79486000D01*
X138160000Y-79486000D02*
X136906000Y-78232000D01*
X137731000Y-70358000D02*
X138176000Y-69913000D01*
X136906000Y-70358000D02*
X137731000Y-70358000D01*
X129381000Y-90107000D02*
X127516000Y-88242000D01*
X130048000Y-90107000D02*
X129381000Y-90107000D01*
X130889000Y-90107000D02*
X132096000Y-88900000D01*
X130048000Y-90107000D02*
X130889000Y-90107000D01*
X141191000Y-76517000D02*
X142756000Y-78082000D01*
X140208000Y-76517000D02*
X141191000Y-76517000D01*
X138160000Y-74469000D02*
X140208000Y-76517000D01*
X138160000Y-74422000D02*
X138160000Y-74469000D01*
X130048000Y-78803000D02*
X130048000Y-80455000D01*
X130740540Y-78803000D02*
X131056069Y-78487471D01*
X130048000Y-78803000D02*
X130740540Y-78803000D01*
X129707000Y-67922000D02*
X130048000Y-68263000D01*
X127516000Y-67922000D02*
X129707000Y-67922000D01*
X140208000Y-83883000D02*
X140208000Y-85535000D01*
X139129000Y-85535000D02*
X138938000Y-85344000D01*
X140208000Y-85535000D02*
X139129000Y-85535000D01*
X129499000Y-70462000D02*
X130048000Y-69913000D01*
X127516000Y-70462000D02*
X129499000Y-70462000D01*
X141527000Y-94551000D02*
X142756000Y-93322000D01*
X140208000Y-94551000D02*
X141527000Y-94551000D01*
X139282990Y-93625990D02*
X140208000Y-94551000D01*
X139282990Y-91412010D02*
X139282990Y-93625990D01*
X140208000Y-90487000D02*
X139282990Y-91412010D01*
X138239000Y-94669980D02*
X139282990Y-93625990D01*
X138239000Y-94996000D02*
X138239000Y-94669980D01*
X140637000Y-92901000D02*
X142756000Y-90782000D01*
X140208000Y-92901000D02*
X140637000Y-92901000D01*
X128565000Y-80622000D02*
X130048000Y-82105000D01*
X127516000Y-80622000D02*
X128565000Y-80622000D01*
X141137000Y-83162000D02*
X140208000Y-82233000D01*
X142756000Y-83162000D02*
X141137000Y-83162000D01*
X129122990Y-87308990D02*
X127516000Y-85702000D01*
X129122990Y-87783990D02*
X129122990Y-87308990D01*
X130048000Y-88709000D02*
X129122990Y-87783990D01*
X140883000Y-75542000D02*
X140208000Y-74867000D01*
X142756000Y-75542000D02*
X140883000Y-75542000D01*
X139760082Y-74867000D02*
X139262542Y-74369460D01*
X140208000Y-74867000D02*
X139760082Y-74867000D01*
X140200458Y-72460542D02*
X140208000Y-72453000D01*
X139262542Y-72460542D02*
X140200458Y-72460542D01*
X130048000Y-93314000D02*
X127516000Y-90782000D01*
X130048000Y-93409000D02*
X130048000Y-93314000D01*
X129253000Y-95059000D02*
X127516000Y-93322000D01*
X130048000Y-95059000D02*
X129253000Y-95059000D01*
X130973010Y-94133990D02*
X130048000Y-95059000D01*
X130973010Y-92682010D02*
X130973010Y-94133990D01*
X130048000Y-91757000D02*
X130973010Y-92682010D01*
X131509000Y-93218000D02*
X130048000Y-91757000D01*
X132271000Y-93218000D02*
X131509000Y-93218000D01*
X142415000Y-70803000D02*
X142756000Y-70462000D01*
X140208000Y-70803000D02*
X142415000Y-70803000D01*
X130973010Y-86133990D02*
X130048000Y-87059000D01*
X130973010Y-84936010D02*
X130973010Y-86133990D01*
X130048000Y-84011000D02*
X130973010Y-84936010D01*
X131001000Y-87059000D02*
X131318000Y-87376000D01*
X130048000Y-87059000D02*
X131001000Y-87059000D01*
X141781000Y-68897000D02*
X142756000Y-67922000D01*
X140208000Y-68897000D02*
X141781000Y-68897000D01*
X140891000Y-67247000D02*
X142756000Y-65382000D01*
X140208000Y-67247000D02*
X140891000Y-67247000D01*
X139192000Y-68263000D02*
X140208000Y-67247000D01*
X138176000Y-68263000D02*
X139192000Y-68263000D01*
X137605000Y-68834000D02*
X138176000Y-68263000D01*
X134937000Y-68834000D02*
X137605000Y-68834000D01*
M02*
