M48
; DRILL file {KiCad 5.1.12-84ad8e8a86~92~ubuntu20.04.1} date Sun 29 May 2022 02:18:32 PM
; FORMAT={-:-/ absolute / metric / decimal}
; #@! TF.CreationDate,2022-05-29T14:18:32-04:00
; #@! TF.GenerationSoftware,Kicad,Pcbnew,5.1.12-84ad8e8a86~92~ubuntu20.04.1
; #@! TF.FileFunction,Plated,1,2,PTH
FMAT,2
METRIC
T1C0.400
T2C0.800
%
G90
G05
T1
X131.056Y-78.487
X131.318Y-87.376
X135.382Y-74.422
X136.906Y-70.358
X136.906Y-78.232
X138.938Y-85.344
X139.263Y-72.461
X139.263Y-74.369
T2
X127.516Y-65.382
X127.516Y-67.922
X127.516Y-70.462
X127.516Y-73.002
X127.516Y-75.542
X127.516Y-78.082
X127.516Y-80.622
X127.516Y-83.162
X127.516Y-85.702
X127.516Y-88.242
X127.516Y-90.782
X127.516Y-93.322
X127.516Y-95.862
X142.756Y-65.382
X142.756Y-67.922
X142.756Y-70.462
X142.756Y-73.002
X142.756Y-75.542
X142.756Y-78.082
X142.756Y-80.622
X142.756Y-83.162
X142.756Y-85.702
X142.756Y-88.242
X142.756Y-90.782
X142.756Y-93.322
X142.756Y-95.862
T0
M30
